<svg xmlns="http://www.w3.org/2000/svg" xmlns:xlink="http://www.w3.org/1999/xlink" width="1080" zoomAndPan="magnify" viewBox="0 0 810 343.499995" height="458" preserveAspectRatio="xMidYMid meet" version="1.0"><defs><clipPath id="733cc44b4b"><path d="M 0.589844 6 L 282 6 L 282 328 L 0.589844 328 Z M 0.589844 6 " clip-rule="nonzero"/></clipPath><clipPath id="66990ef17e"><path d="M 0.589844 59 L 446.636719 59 L 446.636719 342.433594 L 0.589844 342.433594 Z M 0.589844 59 " clip-rule="nonzero"/></clipPath><clipPath id="0888708bb6"><path d="M 0.589844 197 L 252 197 L 252 342.433594 L 0.589844 342.433594 Z M 0.589844 197 " clip-rule="nonzero"/></clipPath><clipPath id="b8d3cd02df"><path d="M 271 283 L 392 283 L 392 342.433594 L 271 342.433594 Z M 271 283 " clip-rule="nonzero"/></clipPath><clipPath id="8dcf4ef123"><path d="M 0.589844 293 L 75 293 L 75 317 L 0.589844 317 Z M 0.589844 293 " clip-rule="nonzero"/></clipPath><clipPath id="6ad05139c9"><path d="M 114 323 L 177 323 L 177 342.433594 L 114 342.433594 Z M 114 323 " clip-rule="nonzero"/></clipPath><clipPath id="83caa34df9"><path d="M 609 6 L 809.078125 6 L 809.078125 328 L 609 328 Z M 609 6 " clip-rule="nonzero"/></clipPath><clipPath id="c2240b16de"><path d="M 365 59 L 809.078125 59 L 809.078125 342.433594 L 365 342.433594 Z M 365 59 " clip-rule="nonzero"/></clipPath><clipPath id="4c251c0649"><path d="M 543 137 L 809.078125 137 L 809.078125 342.433594 L 543 342.433594 Z M 543 137 " clip-rule="nonzero"/></clipPath><clipPath id="6a1c63352a"><path d="M 782 307 L 809.078125 307 L 809.078125 332 L 782 332 Z M 782 307 " clip-rule="nonzero"/></clipPath></defs><g clip-path="url(#733cc44b4b)"><path fill="#27a64f" d="M -400.527344 61.136719 C -399.949219 42.546875 -389.160156 24.234375 -372.933594 14.734375 C -352.859375 2.980469 -326.234375 4.554688 -306.648438 17.109375 C -287.0625 29.667969 -274.726562 52.15625 -272.757812 75.328125 C -258.605469 47.953125 -220.539062 38.609375 -192.4375 51.28125 C -164.339844 63.957031 -146.707031 93.894531 -142.496094 124.421875 C -140.394531 139.65625 -140.886719 156.140625 -132.382812 168.957031 C -123.878906 181.777344 -101.214844 185.957031 -94.449219 172.144531 C -94.566406 154.058594 -94.636719 135.652344 -89.410156 118.335938 C -84.1875 101.023438 -72.765625 84.648438 -55.960938 77.941406 C -39.160156 71.238281 -17.011719 77.050781 -9.078125 93.304688 C -5.488281 74.609375 -0.351562 55.589844 11.300781 40.53125 C 22.953125 25.476562 42.503906 15.183594 61.085938 19.351562 C 79.664062 23.519531 93.597656 45.574219 85.363281 62.738281 C 101.117188 38.882812 136.285156 30.464844 161.140625 44.601562 C 185.992188 58.734375 196.722656 93.257812 184.257812 118.980469 C 197.726562 110.417969 215.800781 111.71875 230 119.011719 C 244.195312 126.304688 255.066406 138.75 264.128906 151.882812 C 275.277344 168.042969 284.535156 187.386719 281 206.695312 C 276.507812 231.261719 252.9375 247.648438 229.613281 256.605469 C 176.195312 277.121094 117.566406 273.171875 62.753906 287.730469 C 49.574219 291.230469 37.375 297.953125 24.328125 301.371094 C 13.808594 304.128906 2.273438 304.03125 -8.496094 305.957031 C -40.757812 311.730469 -73.425781 313.980469 -106.101562 316.019531 C -161.882812 319.5 -217.664062 322.976562 -273.445312 326.457031 C -302.621094 328.277344 -332.738281 329.976562 -360.269531 320.164062 C -395.445312 307.628906 -422.070312 277.402344 -438.230469 243.75 C -447.964844 223.480469 -454.347656 201.84375 -459.328125 179.972656 C -466.128906 150.128906 -481.054688 123.871094 -458.496094 95.664062 C -444.675781 78.390625 -420.8125 69.796875 -399.148438 74.296875 C -400.226562 69.96875 -400.664062 65.546875 -400.527344 61.136719 Z M -400.527344 61.136719 " fill-opacity="1" fill-rule="nonzero"/></g><g clip-path="url(#66990ef17e)"><path fill="#70eb25" d="M 443.621094 337.984375 C 438.449219 347.164062 430.8125 354.148438 421.886719 359.453125 L -680.664062 359.453125 C -686.746094 356.996094 -692.4375 353.503906 -697.484375 348.976562 C -745.097656 306.039062 -685.195312 199.210938 -632.148438 255.859375 C -648.96875 228.570312 -645.476562 190.546875 -624 166.75 C -602.652344 142.824219 -565.132812 135.324219 -536.152344 149.03125 C -548.3125 124.457031 -535.503906 91.609375 -510.921875 79.324219 C -486.46875 67.035156 -454.515625 74.667969 -435.882812 94.714844 C -417.253906 114.757812 -411.691406 145.152344 -418.9375 171.535156 C -413.761719 152.523438 -386.332031 146.832031 -364.984375 147.867188 C -357.609375 148.125 -351.011719 149.160156 -346.226562 150.710938 C -319.316406 159.25 -298.746094 193.78125 -292.40625 220.035156 C -294.214844 205.417969 -290.980469 190.289062 -283.867188 177.355469 C -277.269531 165.199219 -267.304688 154.851562 -255.144531 148.386719 C -229.785156 134.933594 -196.277344 138.945312 -174.929688 157.957031 C -186.1875 130.667969 -178.292969 96.652344 -156.042969 77.253906 C -133.917969 57.726562 -99.113281 54.234375 -73.628906 68.976562 C -48.011719 83.589844 -33.519531 115.40625 -39.085938 144.375 C -19.417969 114.757812 28.710938 113.726562 54.066406 138.683594 C 69.722656 154.074219 76.578125 175.933594 75.671875 197.917969 C 75.15625 211.628906 71.664062 225.335938 65.195312 237.492188 C 74.121094 224.949219 83.308594 212.015625 94.5625 201.667969 C 100.253906 196.238281 106.59375 191.582031 113.582031 187.960938 C 134.28125 177.226562 163.390625 178.777344 176.847656 197.789062 C 172.320312 167.65625 192.628906 135.582031 222 126.917969 C 251.238281 118.378906 285.78125 134.160156 298.332031 161.964844 C 322.265625 142.824219 361.597656 156.402344 376.476562 183.304688 C 391.226562 210.203125 386.4375 244.21875 373.5 272.152344 C 391.871094 260.253906 418.265625 262.710938 434.308594 277.714844 C 450.222656 292.71875 454.359375 318.84375 443.621094 337.984375 Z M 443.621094 337.984375 " fill-opacity="1" fill-rule="nonzero"/></g><g clip-path="url(#0888708bb6)"><path fill="#b1ff64" d="M 240.886719 359.453125 L -19.546875 359.453125 C -26.144531 354.535156 -31.96875 347.292969 -36.753906 336.820312 C -46.070312 316.644531 -40.636719 289.097656 -20.84375 277.066406 C -4.28125 266.980469 20.300781 272.542969 30.132812 288.707031 C 20.945312 268.015625 20.042969 243.054688 31.554688 223.785156 C 40.613281 208.523438 58.207031 198.175781 75.671875 197.917969 C 82.140625 197.660156 88.609375 198.824219 94.5625 201.667969 C 94.691406 201.667969 94.820312 201.796875 94.949219 201.796875 C 108.792969 208.265625 118.238281 221.84375 123.285156 236.199219 C 128.199219 250.683594 129.234375 266.074219 130.269531 281.335938 C 135.1875 266.203125 141.527344 250.8125 153.558594 240.46875 C 165.589844 230.121094 184.480469 226.371094 197.289062 235.683594 C 209.707031 244.605469 212.425781 262.195312 209.449219 277.199219 C 206.601562 292.070312 199.230469 305.78125 195.347656 320.523438 C 205.570312 317.417969 216.175781 314.1875 226.785156 315.21875 C 237.523438 316.382812 248.390625 322.851562 251.109375 333.199219 C 253.695312 342.769531 248.652344 353.113281 240.886719 359.453125 Z M 240.886719 359.453125 " fill-opacity="1" fill-rule="nonzero"/></g><g clip-path="url(#b8d3cd02df)"><path fill="#27a64f" d="M 388.726562 345 C 388.667969 345 388.605469 345 388.535156 344.992188 C 386.753906 344.894531 385.398438 343.363281 385.5 341.578125 C 386.042969 332.117188 380.464844 322.640625 371.921875 318.527344 C 363.386719 314.429688 352.492188 315.984375 345.429688 322.285156 C 344.542969 323.070312 343.324219 323.308594 342.230469 322.941406 C 341.132812 322.570312 340.3125 321.636719 340.089844 320.492188 C 337.5625 307.3125 327.246094 295.773438 314.429688 291.789062 C 301.625 287.820312 286.570312 291.457031 277.011719 300.871094 C 275.75 302.117188 273.699219 302.117188 272.4375 300.832031 C 271.1875 299.5625 271.199219 297.519531 272.476562 296.261719 C 283.683594 285.214844 301.332031 280.929688 316.347656 285.613281 C 329.785156 289.796875 340.871094 301.046875 345.199219 314.421875 C 353.929688 309.035156 365.414062 308.214844 374.726562 312.707031 C 385.566406 317.921875 392.648438 329.945312 391.953125 341.957031 C 391.851562 343.675781 390.429688 345 388.726562 345 Z M 388.726562 345 " fill-opacity="1" fill-rule="nonzero"/></g><path fill="#27a64f" d="M 295.097656 218.707031 C 293.96875 218.707031 292.867188 218.113281 292.273438 217.054688 C 284.523438 203.222656 266.992188 195.398438 251.523438 198.871094 C 248.765625 199.484375 246.890625 200.300781 245.628906 201.429688 C 244.363281 202.554688 243.695312 204.226562 244.03125 205.425781 C 244.496094 207.082031 243.574219 208.820312 241.9375 209.367188 C 240.308594 209.90625 238.535156 209.082031 237.902344 207.472656 C 235.121094 200.363281 226.933594 195.507812 219.4375 196.449219 C 211.863281 197.375 205.152344 204.03125 204.175781 211.601562 C 203.941406 213.378906 202.359375 214.648438 200.546875 214.394531 C 198.777344 214.160156 197.527344 212.542969 197.753906 210.769531 C 199.121094 200.238281 208.101562 191.320312 218.652344 190.03125 C 226.488281 189.058594 234.554688 192.429688 239.738281 198.304688 C 240.203125 197.699219 240.730469 197.125 241.324219 196.597656 C 244.113281 194.117188 247.667969 193.105469 250.105469 192.558594 C 268.25 188.507812 288.824219 197.660156 297.921875 213.894531 C 298.792969 215.457031 298.238281 217.425781 296.675781 218.296875 C 296.179688 218.574219 295.636719 218.707031 295.097656 218.707031 Z M 295.097656 218.707031 " fill-opacity="1" fill-rule="nonzero"/><g clip-path="url(#8dcf4ef123)"><path fill="#70eb25" d="M 40.425781 316.753906 C 39.652344 316.753906 38.894531 316.476562 38.296875 315.953125 C 25.542969 304.78125 4.789062 303.8125 -8.945312 313.742188 C -10.398438 314.765625 -12.414062 314.453125 -13.460938 313.015625 C -14.511719 311.570312 -14.179688 309.546875 -12.734375 308.5 C 1.851562 297.953125 23.210938 297.917969 38.1875 307.765625 C 40.234375 301.609375 45.21875 296.40625 51.441406 294.429688 C 59.503906 291.847656 69.015625 294.941406 74.058594 301.742188 C 75.125 303.175781 74.820312 305.203125 73.386719 306.265625 C 71.960938 307.324219 69.925781 307.035156 68.863281 305.59375 C 65.472656 301.023438 58.828125 298.894531 53.398438 300.59375 C 47.972656 302.316406 43.785156 307.90625 43.660156 313.589844 C 43.625 314.847656 42.875 315.976562 41.726562 316.480469 C 41.308594 316.664062 40.867188 316.753906 40.425781 316.753906 Z M 40.425781 316.753906 " fill-opacity="1" fill-rule="nonzero"/></g><g clip-path="url(#6ad05139c9)"><path fill="#70eb25" d="M 172.960938 349.753906 C 171.746094 349.753906 170.578125 349.066406 170.03125 347.890625 C 165.847656 338.925781 157.199219 332.226562 147.464844 330.394531 C 137.734375 328.585938 127.242188 331.695312 120.097656 338.527344 C 118.808594 339.765625 116.761719 339.714844 115.523438 338.425781 C 114.292969 337.136719 114.335938 335.09375 115.625 333.855469 C 124.269531 325.605469 136.976562 321.867188 148.65625 324.039062 C 160.40625 326.246094 170.839844 334.339844 175.890625 345.152344 C 176.648438 346.773438 175.949219 348.695312 174.332031 349.453125 C 173.890625 349.660156 173.421875 349.753906 172.960938 349.753906 Z M 172.960938 349.753906 " fill-opacity="1" fill-rule="nonzero"/></g><path fill="#70eb25" d="M 127.179688 307.105469 C 127.109375 307.105469 127.046875 307.105469 126.976562 307.097656 C 125.625 307.015625 124.476562 306.101562 124.082031 304.804688 C 122.738281 300.339844 119.1875 296.550781 114.816406 294.917969 C 110.457031 293.289062 105.285156 293.804688 101.335938 296.285156 C 99.84375 297.246094 97.835938 296.78125 96.875 295.265625 C 95.925781 293.753906 96.382812 291.757812 97.898438 290.804688 C 103.519531 287.269531 110.882812 286.53125 117.089844 288.867188 C 121.375 290.472656 125.113281 293.535156 127.648438 297.359375 C 130.054688 294.71875 133.210938 292.644531 136.828125 291.394531 C 142.542969 289.398438 148.675781 289.757812 153.644531 292.367188 C 155.222656 293.199219 155.828125 295.148438 154.996094 296.734375 C 154.160156 298.320312 152.203125 298.921875 150.621094 298.085938 C 147.253906 296.3125 142.992188 296.117188 138.949219 297.5 C 134.890625 298.902344 131.683594 301.707031 130.136719 305.183594 C 129.609375 306.359375 128.449219 307.105469 127.179688 307.105469 Z M 127.179688 307.105469 " fill-opacity="1" fill-rule="nonzero"/><g clip-path="url(#83caa34df9)"><path fill="#27a64f" d="M 679.863281 61.136719 C 680.441406 42.546875 691.230469 24.234375 707.457031 14.734375 C 727.53125 2.980469 754.15625 4.554688 773.742188 17.109375 C 793.324219 29.667969 805.664062 52.15625 807.632812 75.328125 C 821.78125 47.953125 859.851562 38.609375 887.949219 51.28125 C 916.050781 63.957031 933.679688 93.894531 937.894531 124.421875 C 939.996094 139.65625 939.5 156.140625 948.007812 168.957031 C 956.511719 181.777344 979.171875 185.957031 985.9375 172.144531 C 985.824219 154.058594 985.753906 135.652344 990.976562 118.335938 C 996.203125 101.023438 1007.625 84.648438 1024.429688 77.941406 C 1041.230469 71.238281 1063.378906 77.050781 1071.3125 93.304688 C 1074.898438 74.609375 1080.039062 55.589844 1091.691406 40.53125 C 1103.34375 25.476562 1122.894531 15.183594 1141.476562 19.351562 C 1160.054688 23.519531 1173.988281 45.574219 1165.753906 62.738281 C 1181.507812 38.882812 1216.675781 30.464844 1241.527344 44.601562 C 1266.382812 58.734375 1277.113281 93.257812 1264.648438 118.980469 C 1278.113281 110.417969 1296.191406 111.71875 1310.386719 119.011719 C 1324.585938 126.304688 1335.453125 138.75 1344.519531 151.882812 C 1355.667969 168.042969 1364.921875 187.386719 1361.390625 206.695312 C 1356.894531 231.261719 1333.324219 247.648438 1310.003906 256.605469 C 1256.585938 277.121094 1197.957031 273.171875 1143.144531 287.730469 C 1129.964844 291.230469 1117.765625 297.953125 1104.71875 301.371094 C 1094.199219 304.128906 1082.660156 304.03125 1071.894531 305.957031 C 1039.628906 311.730469 1006.960938 313.980469 974.289062 316.019531 C 918.507812 319.5 862.722656 322.976562 806.945312 326.457031 C 777.769531 328.277344 747.652344 329.976562 720.121094 320.164062 C 684.945312 307.628906 658.320312 277.402344 642.160156 243.75 C 632.425781 223.480469 626.042969 201.84375 621.0625 179.972656 C 614.261719 150.128906 599.332031 123.871094 621.894531 95.664062 C 635.710938 78.390625 659.574219 69.796875 681.238281 74.296875 C 680.164062 69.96875 679.726562 65.546875 679.863281 61.136719 Z M 679.863281 61.136719 " fill-opacity="1" fill-rule="nonzero"/></g><g clip-path="url(#c2240b16de)"><path fill="#70eb25" d="M 1524.011719 337.984375 C 1518.835938 347.164062 1511.203125 354.148438 1502.277344 359.453125 L 399.722656 359.453125 C 393.644531 356.996094 387.949219 353.503906 382.90625 348.976562 C 335.292969 306.039062 395.195312 199.210938 448.238281 255.859375 C 431.421875 228.570312 434.914062 190.546875 456.390625 166.75 C 477.738281 142.824219 515.257812 135.324219 544.238281 149.03125 C 532.078125 124.457031 544.886719 91.609375 569.464844 79.324219 C 593.917969 67.035156 625.875 74.667969 644.503906 94.714844 C 663.136719 114.757812 668.699219 145.152344 661.453125 171.535156 C 666.628906 152.523438 694.058594 146.832031 715.402344 147.867188 C 722.777344 148.125 729.375 149.160156 734.164062 150.710938 C 761.074219 159.25 781.644531 193.78125 787.984375 220.035156 C 786.171875 205.417969 789.40625 190.289062 796.523438 177.355469 C 803.121094 165.199219 813.082031 154.851562 825.246094 148.386719 C 850.601562 134.933594 884.113281 138.945312 905.460938 157.957031 C 894.203125 130.667969 902.09375 96.652344 924.347656 77.253906 C 946.472656 57.726562 981.273438 54.234375 1006.761719 68.976562 C 1032.378906 83.589844 1046.867188 115.40625 1041.304688 144.375 C 1060.972656 114.757812 1109.097656 113.726562 1134.457031 138.683594 C 1150.113281 154.074219 1156.96875 175.933594 1156.0625 197.917969 C 1155.546875 211.628906 1152.050781 225.335938 1145.582031 237.492188 C 1154.511719 224.949219 1163.695312 212.015625 1174.953125 201.667969 C 1180.644531 196.238281 1186.984375 191.582031 1193.96875 187.960938 C 1214.671875 177.226562 1243.78125 178.777344 1257.234375 197.789062 C 1252.707031 167.65625 1273.019531 135.582031 1302.390625 126.917969 C 1331.628906 118.378906 1366.171875 134.160156 1378.722656 161.964844 C 1402.65625 142.824219 1441.988281 156.402344 1456.863281 183.304688 C 1471.613281 210.203125 1466.828125 244.21875 1453.890625 272.152344 C 1472.261719 260.253906 1498.652344 262.710938 1514.695312 277.714844 C 1530.609375 292.71875 1534.75 318.84375 1524.011719 337.984375 Z M 1524.011719 337.984375 " fill-opacity="1" fill-rule="nonzero"/></g><g clip-path="url(#4c251c0649)"><path fill="#b1ff64" d="M 907.917969 338.113281 C 902.484375 347.292969 894.203125 354.277344 884.886719 359.453125 L 578.78125 359.453125 C 560.023438 348.070312 542.554688 330.351562 543.71875 306.8125 C 544.496094 290.128906 556.398438 274.480469 572.441406 269.308594 C 588.355469 264.136719 607.246094 269.824219 617.722656 282.886719 C 614.230469 266.722656 612.550781 249.648438 617.078125 233.742188 C 621.605469 217.835938 633.121094 203.222656 649.035156 198.695312 C 664.816406 194.039062 684.484375 202.058594 689.527344 217.835938 C 685 192.097656 694.1875 163.386719 715.273438 147.996094 C 715.273438 147.996094 715.402344 147.996094 715.402344 147.867188 C 728.082031 138.683594 744.902344 134.675781 760.039062 139.074219 C 777.765625 144.117188 790.441406 159.765625 796.523438 177.355469 C 797.945312 181.234375 798.980469 185.113281 799.628906 188.996094 C 803.511719 211.109375 799.109375 233.742188 794.839844 255.730469 C 804.933594 246.417969 815.414062 236.71875 828.480469 232.449219 C 841.546875 228.179688 857.976562 230.640625 865.742188 242.019531 C 872.339844 251.589844 871.046875 264.78125 865.742188 275 C 860.304688 285.214844 851.507812 293.234375 842.96875 300.863281 C 854.484375 295.820312 866.386719 290.648438 878.9375 290.261719 C 891.488281 289.742188 905.070312 295.175781 910.765625 306.425781 C 915.808594 316.253906 913.480469 328.542969 907.917969 338.113281 Z M 907.917969 338.113281 " fill-opacity="1" fill-rule="nonzero"/></g><path fill="#27a64f" d="M 501.832031 236.492188 C 501.433594 236.492188 501.035156 236.421875 500.644531 236.261719 C 498.980469 235.613281 498.167969 233.738281 498.824219 232.070312 C 501.207031 226.027344 504.679688 218.265625 510.453125 211.917969 C 516.449219 205.3125 524.269531 201.292969 531.914062 200.886719 C 538.105469 200.5 544.09375 202.710938 548.40625 206.507812 C 551.996094 196.378906 562.417969 189.128906 572.636719 187.386719 C 585.953125 185.125 599.160156 190.011719 609.1875 194.519531 C 610.816406 195.253906 611.542969 197.167969 610.808594 198.796875 C 610.078125 200.433594 608.164062 201.171875 606.53125 200.417969 C 597.335938 196.285156 585.289062 191.78125 573.722656 193.761719 C 563.917969 195.429688 553.429688 203.753906 553.574219 214.285156 C 553.59375 215.816406 552.539062 217.152344 551.042969 217.488281 C 549.578125 217.816406 548.023438 217.058594 547.398438 215.664062 C 545.054688 210.5 538.753906 207.089844 532.253906 207.339844 C 526.304688 207.65625 520.101562 210.910156 515.242188 216.265625 C 510.171875 221.839844 507.015625 228.90625 504.835938 234.445312 C 504.339844 235.714844 503.121094 236.492188 501.832031 236.492188 Z M 501.832031 236.492188 " fill-opacity="1" fill-rule="nonzero"/><path fill="#27a64f" d="M 426.769531 332.320312 C 425.574219 332.320312 424.433594 331.65625 423.871094 330.511719 C 418.722656 320.070312 421.4375 306.398438 430.179688 298.710938 C 437.945312 291.878906 449.777344 290.355469 459.140625 294.625 C 463.402344 285.875 471.792969 279.269531 481.394531 277.359375 C 492.273438 275.199219 503.976562 279.199219 511.253906 287.523438 C 512.4375 288.867188 512.296875 290.90625 510.953125 292.082031 C 509.613281 293.253906 507.566406 293.136719 506.390625 291.777344 C 500.683594 285.253906 491.136719 282.007812 482.660156 283.699219 C 474.160156 285.386719 466.585938 292.035156 463.808594 300.234375 C 463.484375 301.1875 462.738281 301.933594 461.792969 302.253906 C 460.851562 302.578125 459.789062 302.445312 458.957031 301.894531 C 451.609375 297.027344 441.070312 297.746094 434.449219 303.5625 C 427.832031 309.390625 425.769531 319.746094 429.667969 327.660156 C 430.457031 329.261719 429.800781 331.195312 428.195312 331.984375 C 427.734375 332.210938 427.25 332.320312 426.769531 332.320312 Z M 426.769531 332.320312 " fill-opacity="1" fill-rule="nonzero"/><path fill="#70eb25" d="M 605.8125 326.394531 C 605.753906 326.394531 605.695312 326.394531 605.628906 326.390625 C 603.847656 326.289062 602.484375 324.761719 602.585938 322.980469 C 603.019531 315.226562 608.453125 308.019531 615.789062 305.460938 C 621.613281 303.410156 628.371094 304.4375 633.496094 307.882812 C 637.917969 299.859375 645.675781 293.710938 654.570312 291.398438 C 664.941406 288.695312 676.453125 291.292969 684.652344 298.167969 C 686.023438 299.3125 686.199219 301.351562 685.050781 302.722656 C 683.914062 304.097656 681.878906 304.289062 680.496094 303.121094 C 673.886719 297.582031 664.574219 295.472656 656.199219 297.65625 C 647.835938 299.828125 640.722656 306.203125 637.640625 314.273438 C 637.242188 315.328125 636.3125 316.089844 635.199219 316.296875 C 634.132812 316.5 632.964844 316.109375 632.207031 315.269531 C 628.78125 311.429688 622.792969 309.875 617.921875 311.5625 C 613.066406 313.253906 609.332031 318.210938 609.039062 323.347656 C 608.945312 325.0625 607.519531 326.394531 605.8125 326.394531 Z M 605.8125 326.394531 " fill-opacity="1" fill-rule="nonzero"/><path fill="#70eb25" d="M 692.351562 249.605469 C 691.625 249.605469 690.898438 249.367188 690.300781 248.875 C 688.921875 247.738281 688.71875 245.703125 689.851562 244.320312 C 695.152344 237.875 703.273438 233.6875 711.59375 233.117188 C 719 232.621094 726.78125 235.007812 732.714844 239.597656 C 742.078125 233.972656 753.914062 232.769531 764.222656 236.546875 C 765.898438 237.167969 766.757812 239.023438 766.144531 240.703125 C 765.519531 242.390625 763.6875 243.234375 761.988281 242.621094 C 752.871094 239.269531 742.273438 240.652344 734.332031 246.257812 C 733.078125 247.136719 731.398438 247.03125 730.269531 245.996094 C 725.429688 241.515625 718.65625 239.085938 712.039062 239.570312 C 705.460938 240.019531 699.035156 243.328125 694.855469 248.425781 C 694.210938 249.203125 693.289062 249.605469 692.351562 249.605469 Z M 692.351562 249.605469 " fill-opacity="1" fill-rule="nonzero"/><g clip-path="url(#6a1c63352a)"><path fill="#70eb25" d="M 830.910156 331.070312 C 830.074219 331.070312 829.234375 330.746094 828.605469 330.101562 C 821.964844 323.359375 815.847656 317.574219 808.285156 315.097656 C 801.289062 312.792969 791.917969 314.367188 788.382812 320.960938 C 787.539062 322.539062 785.570312 323.132812 784.003906 322.277344 C 782.429688 321.4375 781.835938 319.480469 782.683594 317.902344 C 787.996094 307.957031 800.878906 305.878906 810.300781 308.949219 C 819.246094 311.882812 825.96875 318.210938 833.214844 325.570312 C 834.464844 326.839844 834.453125 328.890625 833.175781 330.140625 C 832.542969 330.761719 831.730469 331.070312 830.910156 331.070312 Z M 830.910156 331.070312 " fill-opacity="1" fill-rule="nonzero"/></g></svg>