<svg xmlns="http://www.w3.org/2000/svg" xmlns:xlink="http://www.w3.org/1999/xlink" width="1075" zoomAndPan="magnify" viewBox="0 0 806.25 358.49999" height="478" preserveAspectRatio="xMidYMid meet" version="1.0"><defs><clipPath id="4572218c41"><path d="M 0.820312 6 L 279 6 L 279 324 L 0.820312 324 Z M 0.820312 6 " clip-rule="nonzero"/></clipPath><clipPath id="373563f3b1"><path d="M 0.820312 58 L 445 58 L 445 355 L 0.820312 355 Z M 0.820312 58 " clip-rule="nonzero"/></clipPath><clipPath id="3813311bd7"><path d="M 0.820312 195 L 249 195 L 249 355 L 0.820312 355 Z M 0.820312 195 " clip-rule="nonzero"/></clipPath><clipPath id="28f0d39098"><path d="M 0.820312 289 L 74 289 L 74 313 L 0.820312 313 Z M 0.820312 289 " clip-rule="nonzero"/></clipPath><clipPath id="a4bdce75fa"><path d="M 602 6 L 805.125 6 L 805.125 324 L 602 324 Z M 602 6 " clip-rule="nonzero"/></clipPath><clipPath id="12ad804b10"><path d="M 361 58 L 805.125 58 L 805.125 355 L 361 355 Z M 361 58 " clip-rule="nonzero"/></clipPath><clipPath id="5c657f7823"><path d="M 537 135 L 805.125 135 L 805.125 355 L 537 355 Z M 537 135 " clip-rule="nonzero"/></clipPath><clipPath id="eeabc4ac0b"><path d="M 772 303 L 805.125 303 L 805.125 327 L 772 327 Z M 772 303 " clip-rule="nonzero"/></clipPath></defs><g clip-path="url(#4572218c41)"><path fill="#27a64f" d="M -395.203125 60.089844 C -394.632812 41.734375 -383.980469 23.65625 -367.960938 14.277344 C -348.140625 2.671875 -321.851562 4.226562 -302.515625 16.621094 C -283.179688 29.019531 -271 51.222656 -269.054688 74.101562 C -255.085938 47.074219 -217.5 37.847656 -189.757812 50.359375 C -162.015625 62.871094 -144.605469 92.429688 -140.449219 122.570312 C -138.375 137.613281 -138.859375 153.886719 -130.464844 166.539062 C -122.066406 179.195312 -99.691406 183.324219 -93.011719 169.6875 C -93.128906 151.832031 -93.199219 133.660156 -88.039062 116.5625 C -82.878906 99.46875 -71.601562 83.300781 -55.011719 76.683594 C -38.421875 70.0625 -16.554688 75.800781 -8.722656 91.847656 C -5.183594 73.390625 -0.105469 54.609375 11.398438 39.746094 C 22.902344 24.878906 42.203125 14.71875 60.550781 18.835938 C 78.894531 22.949219 92.648438 44.722656 84.515625 61.667969 C 100.070312 38.117188 134.792969 29.808594 159.332031 43.761719 C 183.867188 57.71875 194.464844 91.800781 182.15625 117.199219 C 195.453125 108.746094 213.300781 110.027344 227.316406 117.230469 C 241.332031 124.429688 252.066406 136.714844 261.011719 149.683594 C 272.019531 165.636719 281.160156 184.734375 277.671875 203.800781 C 273.234375 228.054688 249.960938 244.234375 226.9375 253.074219 C 174.199219 273.328125 116.3125 269.433594 62.195312 283.804688 C 49.183594 287.261719 37.140625 293.898438 24.257812 297.273438 C 13.871094 299.996094 2.480469 299.902344 -8.148438 301.800781 C -40.003906 307.5 -72.257812 309.722656 -104.515625 311.734375 C -159.589844 315.171875 -214.664062 318.605469 -269.734375 322.042969 C -298.539062 323.839844 -328.273438 325.511719 -355.457031 315.824219 C -390.183594 303.449219 -416.472656 273.609375 -432.425781 240.382812 C -442.035156 220.371094 -448.339844 199.007812 -453.257812 177.417969 C -459.96875 147.949219 -474.710938 122.023438 -452.433594 94.179688 C -438.792969 77.121094 -415.234375 68.640625 -393.84375 73.082031 C -394.90625 68.808594 -395.335938 64.441406 -395.203125 60.089844 Z M -395.203125 60.089844 " fill-opacity="1" fill-rule="nonzero"/></g><g clip-path="url(#373563f3b1)"><path fill="#70eb25" d="M 438.226562 333.417969 C 433.117188 342.484375 425.582031 349.378906 416.769531 354.617188 L -671.785156 354.617188 C -677.789062 352.191406 -683.410156 348.742188 -688.390625 344.273438 C -735.394531 301.878906 -676.253906 196.410156 -623.882812 252.339844 C -640.488281 225.394531 -637.039062 187.855469 -615.835938 164.359375 C -594.761719 140.738281 -557.71875 133.332031 -529.105469 146.867188 C -541.113281 122.605469 -528.464844 90.175781 -504.195312 78.042969 C -480.054688 65.914062 -448.503906 73.449219 -430.109375 93.238281 C -411.71875 113.03125 -406.226562 143.039062 -413.378906 169.085938 C -408.269531 150.316406 -381.1875 144.695312 -360.113281 145.71875 C -352.832031 145.972656 -346.316406 146.996094 -341.589844 148.527344 C -315.023438 156.957031 -294.710938 191.046875 -288.453125 216.96875 C -290.242188 202.539062 -287.046875 187.601562 -280.023438 174.832031 C -273.507812 162.828125 -263.671875 152.613281 -251.664062 146.230469 C -226.628906 132.949219 -193.546875 136.910156 -172.46875 155.679688 C -183.582031 128.734375 -175.792969 95.15625 -153.820312 76 C -131.980469 56.71875 -97.617188 53.273438 -72.453125 67.828125 C -47.164062 82.257812 -32.855469 113.667969 -38.347656 142.269531 C -18.933594 113.03125 28.582031 112.007812 53.621094 136.652344 C 69.074219 151.847656 75.84375 173.425781 74.949219 195.132812 C 74.441406 208.667969 70.992188 222.203125 64.605469 234.207031 C 73.417969 221.820312 82.488281 209.050781 93.601562 198.835938 C 99.21875 193.472656 105.480469 188.878906 112.378906 185.300781 C 132.816406 174.703125 161.554688 176.234375 174.839844 195.007812 C 170.367188 165.253906 190.421875 133.589844 219.417969 125.035156 C 248.285156 116.605469 282.390625 132.183594 294.78125 159.636719 C 318.414062 140.738281 357.242188 154.144531 371.933594 180.707031 C 386.496094 207.265625 381.769531 240.847656 368.996094 268.425781 C 387.132812 256.679688 413.191406 259.105469 429.03125 273.917969 C 444.742188 288.730469 448.828125 314.523438 438.226562 333.417969 Z M 438.226562 333.417969 " fill-opacity="1" fill-rule="nonzero"/></g><g clip-path="url(#3813311bd7)"><path fill="#b1ff64" d="M 238.066406 354.617188 L -19.0625 354.617188 C -25.574219 349.765625 -31.324219 342.613281 -36.050781 332.269531 C -45.246094 312.351562 -39.882812 285.152344 -20.339844 273.277344 C -3.988281 263.320312 20.28125 268.808594 29.988281 284.769531 C 20.917969 264.339844 20.023438 239.695312 31.394531 220.671875 C 40.335938 205.605469 57.707031 195.390625 74.949219 195.132812 C 81.335938 194.878906 87.722656 196.027344 93.601562 198.835938 C 93.726562 198.835938 93.855469 198.964844 93.984375 198.964844 C 107.652344 205.347656 116.976562 218.757812 121.957031 232.929688 C 126.8125 247.230469 127.832031 262.425781 128.855469 277.492188 C 133.707031 262.554688 139.96875 247.359375 151.847656 237.144531 C 163.726562 226.929688 182.375 223.226562 195.019531 232.417969 C 207.285156 241.230469 209.964844 258.59375 207.027344 273.40625 C 204.21875 288.089844 196.9375 301.625 193.105469 316.183594 C 203.195312 313.117188 213.671875 309.925781 224.144531 310.945312 C 234.746094 312.097656 245.476562 318.480469 248.160156 328.695312 C 250.714844 338.144531 245.730469 348.359375 238.066406 354.617188 Z M 238.066406 354.617188 " fill-opacity="1" fill-rule="nonzero"/></g><path fill="#27a64f" d="M 384.027344 340.347656 C 383.972656 340.347656 383.910156 340.347656 383.839844 340.34375 C 382.082031 340.242188 380.742188 338.734375 380.84375 336.96875 C 381.378906 327.628906 375.871094 318.269531 367.4375 314.210938 C 359.011719 310.164062 348.253906 311.699219 341.28125 317.921875 C 340.40625 318.695312 339.203125 318.933594 338.125 318.570312 C 337.039062 318.203125 336.226562 317.28125 336.011719 316.152344 C 333.515625 303.140625 323.328125 291.75 310.675781 287.8125 C 298.03125 283.890625 283.167969 287.484375 273.734375 296.78125 C 272.484375 298.007812 270.464844 298.007812 269.21875 296.742188 C 267.980469 295.488281 267.996094 293.46875 269.253906 292.226562 C 280.320312 281.324219 297.746094 277.089844 312.570312 281.714844 C 325.835938 285.84375 336.78125 296.953125 341.054688 310.160156 C 349.675781 304.839844 361.015625 304.03125 370.207031 308.464844 C 380.910156 313.613281 387.902344 325.484375 387.214844 337.34375 C 387.117188 339.039062 385.710938 340.347656 384.027344 340.347656 Z M 384.027344 340.347656 " fill-opacity="1" fill-rule="nonzero"/><path fill="#27a64f" d="M 291.589844 215.660156 C 290.472656 215.660156 289.386719 215.074219 288.800781 214.027344 C 281.148438 200.371094 263.839844 192.648438 248.566406 196.074219 C 245.847656 196.679688 243.996094 197.484375 242.746094 198.601562 C 241.5 199.710938 240.839844 201.363281 241.167969 202.546875 C 241.628906 204.179688 240.71875 205.894531 239.105469 206.4375 C 237.496094 206.96875 235.742188 206.15625 235.121094 204.566406 C 232.375 197.546875 224.292969 192.753906 216.886719 193.683594 C 209.410156 194.597656 202.785156 201.167969 201.820312 208.644531 C 201.589844 210.398438 200.03125 211.648438 198.242188 211.402344 C 196.492188 211.171875 195.257812 209.574219 195.484375 207.820312 C 196.832031 197.421875 205.699219 188.621094 216.117188 187.347656 C 223.847656 186.386719 231.8125 189.714844 236.933594 195.515625 C 237.390625 194.917969 237.914062 194.347656 238.5 193.832031 C 241.25 191.382812 244.761719 190.382812 247.167969 189.839844 C 265.082031 185.84375 285.398438 194.878906 294.378906 210.910156 C 295.238281 212.449219 294.6875 214.394531 293.148438 215.253906 C 292.65625 215.527344 292.121094 215.660156 291.589844 215.660156 Z M 291.589844 215.660156 " fill-opacity="1" fill-rule="nonzero"/><g clip-path="url(#28f0d39098)"><path fill="#70eb25" d="M 40.148438 312.460938 C 39.386719 312.460938 38.640625 312.1875 38.046875 311.667969 C 25.457031 300.640625 4.964844 299.683594 -8.59375 309.484375 C -10.027344 310.496094 -12.015625 310.191406 -13.054688 308.769531 C -14.085938 307.339844 -13.761719 305.347656 -12.335938 304.3125 C 2.066406 293.898438 23.152344 293.863281 37.941406 303.589844 C 39.960938 297.507812 44.882812 292.371094 51.027344 290.421875 C 58.984375 287.871094 68.378906 290.925781 73.355469 297.640625 C 74.410156 299.054688 74.109375 301.058594 72.695312 302.105469 C 71.285156 303.152344 69.277344 302.863281 68.226562 301.441406 C 64.878906 296.929688 58.320312 294.828125 52.960938 296.503906 C 47.601562 298.207031 43.46875 303.726562 43.34375 309.335938 C 43.3125 310.578125 42.570312 311.691406 41.433594 312.191406 C 41.023438 312.371094 40.585938 312.460938 40.148438 312.460938 Z M 40.148438 312.460938 " fill-opacity="1" fill-rule="nonzero"/></g><path fill="#70eb25" d="M 171.003906 345.042969 C 169.804688 345.042969 168.652344 344.363281 168.109375 343.203125 C 163.980469 334.351562 155.441406 327.734375 145.828125 325.925781 C 136.226562 324.144531 125.863281 327.210938 118.8125 333.957031 C 117.539062 335.179688 115.519531 335.128906 114.296875 333.859375 C 113.078125 332.585938 113.125 330.566406 114.394531 329.34375 C 122.929688 321.199219 135.476562 317.511719 147.007812 319.65625 C 158.609375 321.832031 168.90625 329.824219 173.898438 340.496094 C 174.644531 342.101562 173.953125 343.996094 172.355469 344.742188 C 171.917969 344.949219 171.457031 345.042969 171.003906 345.042969 Z M 171.003906 345.042969 " fill-opacity="1" fill-rule="nonzero"/><path fill="#70eb25" d="M 125.804688 302.933594 C 125.734375 302.933594 125.671875 302.933594 125.601562 302.925781 C 124.269531 302.847656 123.132812 301.941406 122.746094 300.664062 C 121.417969 296.257812 117.914062 292.515625 113.597656 290.898438 C 109.292969 289.292969 104.1875 289.804688 100.289062 292.253906 C 98.816406 293.199219 96.832031 292.738281 95.882812 291.242188 C 94.949219 289.753906 95.398438 287.78125 96.894531 286.839844 C 102.445312 283.351562 109.710938 282.621094 115.84375 284.925781 C 120.070312 286.511719 123.761719 289.535156 126.265625 293.3125 C 128.640625 290.707031 131.757812 288.65625 135.328125 287.421875 C 140.972656 285.453125 147.027344 285.804688 151.929688 288.382812 C 153.488281 289.203125 154.085938 291.132812 153.265625 292.695312 C 152.441406 294.261719 150.507812 294.851562 148.949219 294.03125 C 145.625 292.277344 141.414062 292.085938 137.421875 293.449219 C 133.417969 294.835938 130.25 297.601562 128.722656 301.039062 C 128.203125 302.199219 127.054688 302.933594 125.804688 302.933594 Z M 125.804688 302.933594 " fill-opacity="1" fill-rule="nonzero"/><g clip-path="url(#a4bdce75fa)"><path fill="#27a64f" d="M 671.46875 60.089844 C 672.039062 41.734375 682.691406 23.65625 698.710938 14.277344 C 718.53125 2.671875 744.820312 4.226562 764.15625 16.621094 C 783.488281 29.019531 795.671875 51.222656 797.613281 74.101562 C 811.585938 47.074219 849.171875 37.847656 876.914062 50.359375 C 904.65625 62.871094 922.0625 92.429688 926.222656 122.570312 C 928.296875 137.613281 927.808594 153.886719 936.207031 166.539062 C 944.601562 179.195312 966.976562 183.324219 973.65625 169.6875 C 973.542969 151.832031 973.472656 133.660156 978.632812 116.5625 C 983.792969 99.46875 995.066406 83.300781 1011.660156 76.683594 C 1028.246094 70.0625 1050.117188 75.800781 1057.945312 91.847656 C 1061.488281 73.390625 1066.5625 54.609375 1078.066406 39.746094 C 1089.570312 24.878906 1108.875 14.71875 1127.21875 18.835938 C 1145.5625 22.949219 1159.316406 44.722656 1151.1875 61.667969 C 1166.742188 38.117188 1201.464844 29.808594 1226 43.761719 C 1250.539062 57.71875 1261.132812 91.800781 1248.828125 117.199219 C 1262.125 108.746094 1279.972656 110.027344 1293.988281 117.230469 C 1308.003906 124.429688 1318.734375 136.714844 1327.683594 149.683594 C 1338.691406 165.636719 1347.828125 184.734375 1344.34375 203.800781 C 1339.90625 228.054688 1316.632812 244.234375 1293.609375 253.074219 C 1240.867188 273.328125 1182.984375 269.433594 1128.867188 283.804688 C 1115.855469 287.261719 1103.808594 293.898438 1090.929688 297.273438 C 1080.542969 299.996094 1069.152344 299.902344 1058.523438 301.800781 C 1026.667969 307.5 994.414062 309.722656 962.15625 311.734375 C 907.082031 315.171875 852.007812 318.605469 796.933594 322.042969 C 768.132812 323.839844 738.398438 325.511719 711.214844 315.824219 C 676.488281 303.449219 650.199219 273.609375 634.242188 240.382812 C 624.632812 220.371094 618.332031 199.007812 613.414062 177.417969 C 606.699219 147.949219 591.960938 122.023438 614.234375 94.179688 C 627.878906 77.121094 651.4375 68.640625 672.828125 73.082031 C 671.765625 68.808594 671.335938 64.441406 671.46875 60.089844 Z M 671.46875 60.089844 " fill-opacity="1" fill-rule="nonzero"/></g><g clip-path="url(#12ad804b10)"><path fill="#70eb25" d="M 1504.898438 333.417969 C 1499.789062 342.484375 1492.253906 349.378906 1483.4375 354.617188 L 394.886719 354.617188 C 388.882812 352.191406 383.261719 348.742188 378.28125 344.273438 C 331.273438 301.878906 390.414062 196.410156 442.785156 252.339844 C 426.179688 225.394531 429.628906 187.855469 450.832031 164.359375 C 471.910156 140.738281 508.953125 133.332031 537.566406 146.867188 C 525.558594 122.605469 538.203125 90.175781 562.472656 78.042969 C 586.617188 65.914062 618.167969 73.449219 636.558594 93.238281 C 654.953125 113.03125 660.445312 143.039062 653.292969 169.085938 C 658.402344 150.316406 685.480469 144.695312 706.558594 145.71875 C 713.839844 145.972656 720.355469 146.996094 725.078125 148.527344 C 751.648438 156.957031 771.957031 191.046875 778.21875 216.96875 C 776.429688 202.539062 779.621094 187.601562 786.648438 174.832031 C 793.164062 162.828125 802.996094 152.613281 815.003906 146.230469 C 840.039062 132.949219 873.125 136.910156 894.199219 155.679688 C 883.085938 128.734375 890.878906 95.15625 912.847656 76 C 934.691406 56.71875 969.050781 53.273438 994.214844 67.828125 C 1019.507812 82.257812 1033.8125 113.667969 1028.320312 142.269531 C 1047.738281 113.03125 1095.253906 112.007812 1120.289062 136.652344 C 1135.746094 151.847656 1142.515625 173.425781 1141.621094 195.132812 C 1141.109375 208.667969 1137.664062 222.203125 1131.277344 234.207031 C 1140.089844 221.820312 1149.160156 209.050781 1160.269531 198.835938 C 1165.890625 193.472656 1172.152344 188.878906 1179.046875 185.300781 C 1199.484375 174.703125 1228.226562 176.234375 1241.511719 195.007812 C 1237.039062 165.253906 1257.09375 133.589844 1286.089844 125.035156 C 1314.957031 116.605469 1349.0625 132.183594 1361.453125 159.636719 C 1385.082031 140.738281 1423.914062 154.144531 1438.605469 180.707031 C 1453.167969 207.265625 1448.441406 240.847656 1435.667969 268.425781 C 1453.804688 256.679688 1479.863281 259.105469 1495.703125 273.917969 C 1511.414062 288.730469 1515.5 314.523438 1504.898438 333.417969 Z M 1504.898438 333.417969 " fill-opacity="1" fill-rule="nonzero"/></g><g clip-path="url(#5c657f7823)"><path fill="#b1ff64" d="M 896.628906 333.546875 C 891.261719 342.613281 883.085938 349.507812 873.890625 354.617188 L 571.671875 354.617188 C 553.148438 343.378906 535.90625 325.886719 537.054688 302.648438 C 537.820312 286.175781 549.574219 270.726562 565.410156 265.617188 C 581.125 260.511719 599.773438 266.128906 610.117188 279.023438 C 606.671875 263.0625 605.007812 246.210938 609.480469 230.503906 C 613.949219 214.796875 625.320312 200.367188 641.03125 195.898438 C 656.613281 191.304688 676.03125 199.21875 681.011719 214.796875 C 676.539062 189.386719 685.609375 161.042969 706.429688 145.847656 C 706.429688 145.847656 706.558594 145.847656 706.558594 145.71875 C 719.078125 136.652344 735.683594 132.695312 750.625 137.035156 C 768.125 142.015625 780.644531 157.464844 786.648438 174.832031 C 788.054688 178.664062 789.074219 182.492188 789.714844 186.324219 C 793.546875 208.15625 789.203125 230.503906 784.988281 252.210938 C 794.949219 243.015625 805.296875 233.441406 818.199219 229.226562 C 831.097656 225.011719 847.320312 227.4375 854.984375 238.675781 C 861.5 248.125 860.222656 261.148438 854.984375 271.234375 C 849.621094 281.324219 840.933594 289.238281 832.503906 296.773438 C 843.871094 291.792969 855.625 286.6875 868.015625 286.304688 C 880.40625 285.792969 893.816406 291.15625 899.4375 302.265625 C 904.417969 311.96875 902.121094 324.097656 896.628906 333.546875 Z M 896.628906 333.546875 " fill-opacity="1" fill-rule="nonzero"/></g><path fill="#27a64f" d="M 495.695312 233.214844 C 495.304688 233.214844 494.910156 233.148438 494.523438 232.992188 C 492.882812 232.351562 492.078125 230.496094 492.726562 228.851562 C 495.078125 222.886719 498.507812 215.222656 504.210938 208.957031 C 510.128906 202.433594 517.851562 198.464844 525.398438 198.066406 C 531.507812 197.683594 537.421875 199.867188 541.683594 203.613281 C 545.226562 193.613281 555.515625 186.457031 565.601562 184.734375 C 578.75 182.503906 591.792969 187.328125 601.691406 191.78125 C 603.300781 192.503906 604.015625 194.390625 603.292969 196 C 602.570312 197.617188 600.679688 198.34375 599.070312 197.601562 C 589.988281 193.519531 578.09375 189.074219 566.675781 191.03125 C 556.996094 192.679688 546.640625 200.894531 546.785156 211.292969 C 546.804688 212.804688 545.761719 214.125 544.28125 214.457031 C 542.835938 214.78125 541.300781 214.03125 540.683594 212.652344 C 538.371094 207.554688 532.152344 204.1875 525.734375 204.4375 C 519.859375 204.75 513.734375 207.960938 508.9375 213.246094 C 503.929688 218.75 500.816406 225.726562 498.664062 231.195312 C 498.171875 232.449219 496.96875 233.214844 495.695312 233.214844 Z M 495.695312 233.214844 " fill-opacity="1" fill-rule="nonzero"/><path fill="#27a64f" d="M 421.589844 327.828125 C 420.410156 327.828125 419.28125 327.175781 418.726562 326.046875 C 413.644531 315.734375 416.324219 302.234375 424.957031 294.648438 C 432.621094 287.902344 444.304688 286.398438 453.546875 290.613281 C 457.757812 281.972656 466.039062 275.449219 475.519531 273.566406 C 486.261719 271.433594 497.816406 275.382812 505.003906 283.597656 C 506.167969 284.925781 506.03125 286.941406 504.703125 288.101562 C 503.382812 289.261719 501.359375 289.140625 500.199219 287.800781 C 494.5625 281.359375 485.136719 278.15625 476.769531 279.828125 C 468.378906 281.492188 460.902344 288.058594 458.15625 296.148438 C 457.839844 297.089844 457.101562 297.828125 456.167969 298.144531 C 455.238281 298.460938 454.191406 298.332031 453.367188 297.789062 C 446.113281 292.984375 435.707031 293.691406 429.171875 299.4375 C 422.636719 305.191406 420.601562 315.414062 424.453125 323.226562 C 425.230469 324.8125 424.582031 326.71875 422.996094 327.5 C 422.542969 327.722656 422.0625 327.828125 421.589844 327.828125 Z M 421.589844 327.828125 " fill-opacity="1" fill-rule="nonzero"/><path fill="#70eb25" d="M 598.359375 321.980469 C 598.300781 321.980469 598.242188 321.980469 598.179688 321.972656 C 596.417969 321.875 595.070312 320.367188 595.171875 318.609375 C 595.601562 310.953125 600.964844 303.835938 608.207031 301.3125 C 613.957031 299.285156 620.632812 300.300781 625.691406 303.699219 C 630.054688 295.78125 637.714844 289.710938 646.496094 287.425781 C 656.738281 284.757812 668.101562 287.320312 676.195312 294.109375 C 677.550781 295.238281 677.726562 297.253906 676.589844 298.605469 C 675.46875 299.964844 673.457031 300.152344 672.09375 299 C 665.570312 293.53125 656.375 291.449219 648.105469 293.605469 C 639.847656 295.75 632.824219 302.042969 629.78125 310.011719 C 629.386719 311.050781 628.472656 311.804688 627.375 312.011719 C 626.320312 312.210938 625.164062 311.824219 624.417969 310.996094 C 621.035156 307.203125 615.125 305.671875 610.316406 307.335938 C 605.519531 309.007812 601.832031 313.898438 601.546875 318.96875 C 601.453125 320.664062 600.042969 321.980469 598.359375 321.980469 Z M 598.359375 321.980469 " fill-opacity="1" fill-rule="nonzero"/><path fill="#70eb25" d="M 683.800781 246.164062 C 683.082031 246.164062 682.367188 245.929688 681.773438 245.441406 C 680.414062 244.320312 680.214844 242.3125 681.328125 240.949219 C 686.5625 234.582031 694.582031 230.449219 702.796875 229.886719 C 710.109375 229.394531 717.792969 231.75 723.648438 236.285156 C 732.890625 230.730469 744.578125 229.542969 754.757812 233.273438 C 756.410156 233.882812 757.261719 235.714844 756.65625 237.375 C 756.039062 239.039062 754.230469 239.875 752.550781 239.269531 C 743.550781 235.960938 733.085938 237.324219 725.246094 242.863281 C 724.007812 243.726562 722.351562 243.621094 721.234375 242.597656 C 716.457031 238.179688 709.769531 235.777344 703.234375 236.257812 C 696.742188 236.703125 690.398438 239.96875 686.269531 245 C 685.632812 245.765625 684.722656 246.164062 683.800781 246.164062 Z M 683.800781 246.164062 " fill-opacity="1" fill-rule="nonzero"/><g clip-path="url(#eeabc4ac0b)"><path fill="#70eb25" d="M 820.597656 326.59375 C 819.773438 326.59375 818.945312 326.277344 818.320312 325.640625 C 811.765625 318.980469 805.726562 313.269531 798.261719 310.828125 C 791.351562 308.550781 782.101562 310.101562 778.609375 316.613281 C 777.777344 318.171875 775.832031 318.757812 774.285156 317.914062 C 772.734375 317.085938 772.148438 315.152344 772.984375 313.59375 C 778.230469 303.773438 790.945312 301.722656 800.25 304.753906 C 809.082031 307.652344 815.71875 313.898438 822.875 321.164062 C 824.109375 322.417969 824.09375 324.441406 822.835938 325.679688 C 822.210938 326.289062 821.40625 326.59375 820.597656 326.59375 Z M 820.597656 326.59375 " fill-opacity="1" fill-rule="nonzero"/></g></svg>